<?xml version="1.0" standalone="no"?>
<!DOCTYPE svg PUBLIC "-//W3C//DTD SVG 20010904//EN"
 "http://www.w3.org/TR/2001/REC-SVG-20010904/DTD/svg10.dtd">
<svg version="1.0" xmlns="http://www.w3.org/2000/svg"
 width="500.000000pt" height="409.000000pt" viewBox="0 0 500.000000 409.000000"
 preserveAspectRatio="xMidYMid meet">

<g transform="translate(0.000000,409.000000) scale(0.100000,-0.100000)"
fill="#000000" stroke="none">
<path d="M2550 2886 c0 -9 11 -46 25 -83 16 -41 22 -69 15 -71 -15 -5 -12 -22
4 -22 19 0 32 -40 16 -50 -7 -4 -32 -10 -57 -14 -39 -5 -50 -2 -89 25 -24 16
-44 27 -44 24 0 -3 9 -23 20 -45 13 -25 20 -60 21 -97 0 -58 0 -58 17 -34 36
52 47 59 105 66 51 6 57 5 57 -12 0 -11 -6 -25 -12 -31 -9 -9 -10 -15 -2 -20
7 -4 15 -44 19 -89 4 -46 10 -83 14 -83 4 0 20 40 36 89 23 74 32 91 52 96 25
6 32 25 8 25 -16 0 -19 17 -7 37 4 6 36 16 70 23 73 13 134 39 129 54 -2 7
-43 11 -105 11 -82 0 -104 3 -118 17 -16 16 -16 18 -1 24 28 10 19 27 -10 21
-25 -4 -36 4 -95 75 -38 44 -68 72 -68 64z"/>
<path d="M2255 2644 c-437 -103 -684 -264 -766 -499 -71 -207 1 -463 192 -679
95 -107 296 -257 464 -345 90 -47 85 -43 -58 50 -339 219 -532 474 -553 731
-21 256 131 440 452 547 93 31 316 81 361 81 26 0 26 1 19 56 -10 84 -6 82
-111 58z"/>
</g>
</svg>
