<svg width="800" height="800" viewBox="0 0 256 256" xmlns="http://www.w3.org/2000/svg"><path d="M188 20H68a36.04 36.04 0 0 0-36 36v128a36.04 36.04 0 0 0 36 36h4l-9.6 12.8a12 12 0 1 0 19.2 14.4L102 220h52l20.4 27.2a12 12 0 0 0 19.2-14.4L184 220h4a36.04 36.04 0 0 0 36-36V56a36.04 36.04 0 0 0-36-36ZM68 44h120a12.013 12.013 0 0 1 12 12v60H56V56a12.013 12.013 0 0 1 12-12Zm120 152H68a12.013 12.013 0 0 1-12-12v-44h144v44a12.013 12.013 0 0 1-12 12Zm-84-28a16 16 0 1 1-16-16 16.018 16.018 0 0 1 16 16Zm80 0a16 16 0 1 1-16-16 16.018 16.018 0 0 1 16 16Z" fill="#fff"/></svg>