<svg xmlns="http://www.w3.org/2000/svg" xmlns:xlink="http://www.w3.org/1999/xlink" width="500" zoomAndPan="magnify" viewBox="0 0 375 374.999991" height="500" preserveAspectRatio="xMidYMid meet" version="1.0"><defs><g/><clipPath id="fe93a3c258"><path d="M 180 148 L 222 148 L 222 190 L 180 190 Z M 180 148 " clip-rule="nonzero"/></clipPath><clipPath id="cb63888933"><path d="M 125.589844 134.40625 L 223.910156 155.226562 L 193.921875 296.835938 L 95.601562 276.015625 Z M 125.589844 134.40625 " clip-rule="nonzero"/></clipPath><clipPath id="6143fe4fce"><path d="M 125.605469 134.332031 L 223.925781 155.152344 L 193.9375 296.761719 L 95.617188 275.941406 Z M 125.605469 134.332031 " clip-rule="nonzero"/></clipPath><clipPath id="c7ca9b8fd5"><path d="M 109 165 L 189 165 L 189 296 L 109 296 Z M 109 165 " clip-rule="nonzero"/></clipPath><clipPath id="0cf59d09d7"><path d="M 125.589844 134.40625 L 223.910156 155.226562 L 193.921875 296.835938 L 95.601562 276.015625 Z M 125.589844 134.40625 " clip-rule="nonzero"/></clipPath><clipPath id="5c6d3cbd9a"><path d="M 125.605469 134.332031 L 223.925781 155.152344 L 193.9375 296.761719 L 95.617188 275.941406 Z M 125.605469 134.332031 " clip-rule="nonzero"/></clipPath></defs><g fill="#ffffff" fill-opacity="1"><g transform="translate(152.923163, 275.228458)"><g><path d="M 18.949219 -85.453125 L 29.488281 -85.453125 L 29.488281 -13.800781 C 29.488281 -6.398438 28.359375 0 28.359375 0 L 43.667969 0 C 43.667969 0 42.410156 -6.398438 42.410156 -13.800781 L 42.410156 -85.453125 L 52.953125 -85.453125 C 60.355469 -85.453125 71.898438 -82.1875 71.898438 -82.1875 L 71.898438 -87.835938 L 0 -87.835938 L 0 -82.1875 C 0 -82.1875 11.542969 -85.453125 18.949219 -85.453125 Z M 18.949219 -85.453125 "/></g></g></g><g fill="#ffffff" fill-opacity="1"><g transform="translate(159.618289, 274.509492)"><g><path d="M 10.695312 -47.039062 L 25.019531 -1.1875 L 25.789062 -1.1875 L 40.046875 -46.96875 L 47.875 -6.570312 C 48.363281 -3.984375 48.714844 -1.816406 48.363281 0 L 56.960938 0 C 55.84375 -2.867188 55.214844 -5.800781 54.65625 -8.804688 L 46.898438 -48.925781 L 39.699219 -48.925781 L 28.515625 -13.070312 L 17.332031 -48.925781 L 10.132812 -48.925781 L 2.167969 -7.6875 C 1.398438 -3.566406 0 0 0 0 L 4.613281 0 C 4.613281 0 2.867188 -6.429688 4.125 -12.71875 Z M 10.695312 -47.039062 "/></g></g></g><g fill="#ffffff" fill-opacity="1"><g transform="translate(146.529708, 272.014686)"><g><path d="M 17.191406 -75.628906 L 40.230469 -1.910156 L 41.464844 -1.910156 L 64.390625 -75.515625 L 76.976562 -10.5625 C 77.761719 -6.40625 78.324219 -2.921875 77.761719 0 L 91.585938 0 C 89.785156 -4.605469 88.773438 -9.328125 87.875 -14.160156 L 75.402344 -78.660156 L 63.828125 -78.660156 L 45.847656 -21.015625 L 27.867188 -78.660156 L 16.292969 -78.660156 L 3.484375 -12.359375 C 2.246094 -5.730469 0 0 0 0 L 7.417969 0 C 7.417969 0 4.605469 -10.339844 6.628906 -20.453125 Z M 17.191406 -75.628906 "/></g></g></g><g clip-path="url(#fe93a3c258)"><g clip-path="url(#cb63888933)"><g clip-path="url(#6143fe4fce)"><path fill="#ec6408" d="M 221.699219 165.457031 C 221.691406 165.738281 221.585938 166.007812 221.398438 166.265625 C 220.488281 167.523438 217.613281 168.5 214.636719 169.207031 C 214.09375 169.335938 213.550781 169.453125 213.011719 169.5625 C 209.648438 170.253906 206.59375 170.589844 206.59375 170.589844 L 205.464844 173.949219 L 206.984375 173.773438 C 207.613281 173.703125 208.183594 174.152344 208.253906 174.777344 C 208.328125 175.40625 207.878906 175.972656 207.25 176.042969 L 204.664062 176.339844 L 200.121094 189.894531 L 198.46875 189.980469 L 197.855469 179.84375 L 197.691406 177.097656 L 197.335938 177.136719 C 196.953125 177.179688 196.574219 177.03125 196.324219 176.742188 C 195.714844 176.042969 196.140625 174.949219 197.066406 174.839844 L 197.550781 174.785156 L 197.382812 171.960938 L 196.113281 172.140625 L 189.152344 173.121094 L 185.121094 178.871094 L 184.652344 179.234375 L 183.902344 179.816406 L 183.929688 179.09375 L 184.226562 170.652344 L 180.550781 163.050781 L 182.277344 163.355469 L 188.226562 167.714844 L 194.683594 166.613281 L 195.332031 166.503906 L 196.496094 166.304688 L 195.320312 162.960938 L 194.394531 163.066406 C 194.011719 163.113281 193.632812 162.964844 193.382812 162.671875 C 192.773438 161.972656 193.199219 160.878906 194.121094 160.773438 L 194.535156 160.726562 L 190.316406 148.734375 L 191.804688 148.390625 L 201.722656 159.964844 C 201.804688 159.933594 201.894531 159.910156 201.984375 159.898438 L 204.816406 159.574219 C 205.445312 159.5 206.015625 159.949219 206.085938 160.578125 C 206.160156 161.203125 205.710938 161.769531 205.082031 161.839844 L 203.484375 162.023438 L 205.792969 164.714844 C 205.792969 164.714844 208.597656 164.238281 211.851562 163.9375 C 212.25 163.898438 212.652344 163.863281 213.058594 163.835938 C 217.265625 163.519531 221.738281 163.621094 221.699219 165.457031 " fill-opacity="1" fill-rule="nonzero"/></g></g></g><g clip-path="url(#c7ca9b8fd5)"><g clip-path="url(#0cf59d09d7)"><g clip-path="url(#5c6d3cbd9a)"><path fill="#ec6408" d="M 178.578125 176.046875 C 178.578125 176.046875 177.796875 176.167969 176.328125 176.394531 C 174.832031 176.621094 172.765625 176.964844 170.097656 177.433594 C 167.433594 177.929688 164.1875 178.527344 160.539062 179.394531 C 156.886719 180.253906 152.789062 181.300781 148.464844 182.757812 C 144.148438 184.222656 139.566406 186.042969 135.105469 188.53125 C 130.667969 191.039062 126.335938 194.183594 122.804688 198.300781 C 119.335938 202.332031 116.804688 207.472656 115.710938 213.074219 C 115.175781 215.878906 114.972656 218.792969 115.085938 221.734375 C 115.222656 224.671875 115.679688 227.632812 116.40625 230.546875 C 117.859375 236.378906 120.449219 241.976562 123.695312 247.054688 C 124.507812 248.328125 125.371094 249.558594 126.261719 250.765625 L 126.425781 250.992188 C 126.375 250.933594 126.4375 251.011719 126.4375 251.011719 L 126.484375 251.066406 L 126.570312 251.179688 L 126.933594 251.632812 L 127.652344 252.535156 C 128.128906 253.136719 128.609375 253.734375 129.082031 254.332031 C 130.0625 255.449219 131.035156 256.554688 132 257.65625 C 133.03125 258.722656 134.054688 259.78125 135.066406 260.832031 C 139.226562 264.945312 143.609375 268.589844 147.925781 271.839844 C 148.464844 272.246094 149 272.652344 149.53125 273.050781 C 150.074219 273.4375 150.617188 273.820312 151.152344 274.203125 C 152.226562 274.957031 153.265625 275.730469 154.335938 276.425781 C 155.394531 277.132812 156.4375 277.832031 157.460938 278.515625 C 158.5 279.175781 159.523438 279.820312 160.523438 280.453125 C 161.519531 281.097656 162.519531 281.6875 163.488281 282.269531 C 164.464844 282.851562 165.40625 283.433594 166.34375 283.972656 C 168.226562 285.035156 169.992188 286.085938 171.691406 286.992188 C 173.382812 287.921875 174.964844 288.792969 176.449219 289.558594 C 177.929688 290.332031 179.285156 291.054688 180.527344 291.671875 C 181.765625 292.292969 182.871094 292.851562 183.832031 293.335938 C 184.800781 293.808594 185.625 294.210938 186.292969 294.535156 C 187.628906 295.1875 188.34375 295.535156 188.34375 295.535156 C 188.34375 295.535156 187.613281 295.222656 186.246094 294.640625 C 185.558594 294.351562 184.71875 293.992188 183.726562 293.570312 C 182.738281 293.132812 181.605469 292.632812 180.335938 292.070312 C 179.058594 291.519531 177.667969 290.867188 176.148438 290.167969 C 174.621094 289.476562 172.992188 288.6875 171.25 287.84375 C 169.496094 287.019531 167.671875 286.058594 165.730469 285.085938 C 164.761719 284.59375 163.785156 284.058594 162.773438 283.523438 C 161.765625 282.984375 160.730469 282.445312 159.695312 281.847656 C 158.65625 281.261719 157.59375 280.664062 156.511719 280.054688 C 155.441406 279.417969 154.355469 278.769531 153.25 278.105469 C 152.132812 277.460938 151.042969 276.734375 149.914062 276.023438 C 149.351562 275.664062 148.785156 275.304688 148.214844 274.941406 C 147.652344 274.5625 147.089844 274.179688 146.523438 273.796875 C 141.972656 270.722656 137.308594 267.238281 132.808594 263.214844 C 131.703125 262.1875 130.589844 261.144531 129.46875 260.097656 C 128.386719 258.984375 127.296875 257.863281 126.199219 256.734375 C 125.695312 256.160156 125.1875 255.585938 124.679688 255.011719 L 123.53125 253.710938 L 123.304688 253.453125 L 123.117188 253.222656 C 122.109375 251.992188 121.125 250.730469 120.191406 249.421875 C 116.453125 244.1875 113.335938 238.300781 111.390625 231.9375 C 110.421875 228.757812 109.734375 225.46875 109.40625 222.125 C 109.101562 218.785156 109.15625 215.394531 109.617188 212.054688 C 110.566406 205.375 113.261719 199.007812 117.273438 193.832031 C 117.789062 193.175781 118.335938 192.460938 118.796875 191.949219 L 119.519531 191.121094 L 119.609375 191.015625 L 119.652344 190.964844 C 119.609375 191.011719 119.765625 190.84375 119.769531 190.839844 L 119.976562 190.628906 L 120.394531 190.207031 C 120.953125 189.648438 121.507812 189.089844 122.058594 188.535156 C 122.617188 187.984375 123.222656 187.507812 123.796875 186.992188 C 126.105469 184.945312 128.578125 183.261719 131.003906 181.683594 C 135.90625 178.605469 140.835938 176.363281 145.425781 174.535156 C 150.027344 172.71875 154.324219 171.382812 158.136719 170.277344 C 161.953125 169.164062 165.300781 168.367188 168.058594 167.707031 C 170.828125 167.070312 173.039062 166.589844 174.46875 166.296875 C 175.925781 165.996094 176.703125 165.832031 176.703125 165.832031 L 178.578125 176.046875 " fill-opacity="1" fill-rule="nonzero"/></g></g></g></svg>